# xmcd CD database file
#
# Track frame offsets:
#	150
#	14919
#	43868
#	54779
#	70753
#	90163
#	98251
#	113232
#	127296
#	153918
#	172597
#	183275
#	201402
#	215452
#
# Disc length: 3190 seconds
#
# Revision: 3
# Processed by: cddbd v1.5PL3 Copyright (c) Steve Scherf et al.
# Submitted via: CDex 1.51
#
DISCID=b30c740e
DTITLE=THE BLUE HEARTS - THE BLUE HEARTS 2002 TRIBUTE
DYEAR=2002
DGENRE=Rock
TTITLE0=kiss site hosii
TTITLE1=line wo koete
TTITLE2=jounetu no bara
TTITLE3=sha la la
TTITLE4=TRAIN TRAIN
TTITLE5=dance number
TTITLE6=mirai ha bokura no tenonaka
TTITLE7=hit ni yasasiku
TTITLE8=too much pain
TTITLE9=fuusen bakudan
TTITLE10=sekai no mannaka
TTITLE11=rinda rinda
TTITLE12=syounen no shi
TTITLE13=aozora
EXTD=YEAR: 2002
EXTT0=
EXTT1=
EXTT2=
EXTT3=
EXTT4=
EXTT5=
EXTT6=
EXTT7=
EXTT8=
EXTT9=
EXTT10=
EXTT11=
EXTT12=
EXTT13=
PLAYORDER=
